<svg xmlns="http://www.w3.org/2000/svg" width="1400" height="330" viewBox="0 0 1400 330">
<defs><linearGradient id="g1" x1="0" x2="1"><stop stop-color="#8E54E9"/><stop offset="1" stop-color="#4F8CFF"/></linearGradient><linearGradient id="g2" x1="0" x2="1"><stop stop-color="#4F8CFF"/><stop offset="1" stop-color="#8DB8FF"/></linearGradient></defs>
<rect width="1400" height="330" rx="28" fill="#0D0B18"/>
<g font-family="Arial,Helvetica,sans-serif">
<g transform="translate(25 25)"><rect width="425" height="280" rx="24" fill="#151126" stroke="#8E54E9" stroke-opacity=".6"/><circle cx="42" cy="42" r="16" fill="#8E54E9" fill-opacity=".2"/><path d="M34 42h16M42 34v16" stroke="#B993FF" stroke-width="2"/><text x="75" y="49" fill="#fff" font-size="22" font-weight="700">ENGINEERING</text><text x="32" y="95" fill="#8DB8FF" font-size="14" font-weight="700" letter-spacing="2">BUILD / SYSTEMS</text><text x="32" y="140" fill="#F5F4FA" font-size="20">Software Engineering</text><text x="32" y="176" fill="#BDB8D0" font-size="17">Full-Stack • Integration</text><text x="32" y="208" fill="#BDB8D0" font-size="17">Architecture • Logic</text><rect x="32" y="242" width="125" height="8" rx="4" fill="url(#g1)"/></g>
<g transform="translate(487 25)"><rect width="425" height="280" rx="24" fill="#11152A" stroke="#4F8CFF" stroke-opacity=".65"/><circle cx="42" cy="42" r="16" fill="#4F8CFF" fill-opacity=".18"/><path d="M34 42l6 6 10-14" fill="none" stroke="#9FC1FF" stroke-width="2.5"/><text x="75" y="49" fill="#fff" font-size="22" font-weight="700">PRODUCT</text><text x="32" y="95" fill="#8DB8FF" font-size="14" font-weight="700" letter-spacing="2">THINK / SHAPE</text><text x="32" y="140" fill="#F5F4FA" font-size="20">Strategy • Research</text><text x="32" y="176" fill="#BDB8D0" font-size="17">Solution Design • Roadmaps</text><text x="32" y="208" fill="#BDB8D0" font-size="17">Requirements • Product Flow</text><rect x="32" y="242" width="125" height="8" rx="4" fill="url(#g2)"/></g>
<g transform="translate(949 25)"><rect width="425" height="280" rx="24" fill="#171126" stroke="#8E54E9" stroke-opacity=".55"/><circle cx="42" cy="42" r="16" fill="#8E54E9" fill-opacity=".18"/><path d="M34 48l16-12M34 36l16 12" stroke="#B993FF" stroke-width="2"/><text x="75" y="49" fill="#fff" font-size="22" font-weight="700">DESIGN</text><text x="32" y="95" fill="#8DB8FF" font-size="14" font-weight="700" letter-spacing="2">SHAPE / EXPERIENCE</text><text x="32" y="140" fill="#F5F4FA" font-size="20">UI/UX • Figma</text><text x="32" y="176" fill="#BDB8D0" font-size="17">Design Systems • Flows</text><text x="32" y="208" fill="#BDB8D0" font-size="17">Prototyping • Interfaces</text><rect x="32" y="242" width="125" height="8" rx="4" fill="url(#g1)"/></g></g></svg>