<svg xmlns="http://www.w3.org/2000/svg" width="1400" height="670" viewBox="0 0 1400 670">

<defs>
  <linearGradient id="g" x1="0" y1="0" x2="1" y2="1">
    <stop stop-color="#8E54E9"/>
    <stop offset=".55" stop-color="#7C8CFF"/>
    <stop offset="1" stop-color="#4F8CFF"/>
  </linearGradient>
</defs>

<!-- Background -->
<rect
  x="12"
  y="12"
  width="1376"
  height="646"
  rx="28"
  fill="#0D0B18"
  stroke="#332B4C"
  stroke-width="2"
/>

<!-- ==================== HEADER ==================== -->

<text
  x="62"
  y="70"
  fill="#8DB8FF"
  font-family="Arial"
  font-size="18"
  font-weight="700"
  letter-spacing="3"
>
  STACK ANALYTICS
</text>

<!-- ==================== ENGINEERING ==================== -->

<text
  x="62"
  y="112"
  fill="#FFF"
  font-family="Arial"
  font-size="28"
  font-weight="800"
>
  ENGINEERING
</text>

<!-- Engineering labels -->
<g
  font-family="Arial"
  font-size="15"
  fill="#DCD7EA"
>
  <text x="62" y="155">PHP</text>
  <text x="62" y="205">Flutter / Dart</text>
  <text x="62" y="255">JavaScript</text>
  <text x="62" y="305">MySQL</text>
  <text x="62" y="355">HTML / CSS</text>
</g>

<!-- Engineering background bars -->
<g fill="#211B36">
  <rect x="230" y="142" width="1050" height="18" rx="9"/>
  <rect x="230" y="192" width="1050" height="18" rx="9"/>
  <rect x="230" y="242" width="1050" height="18" rx="9"/>
  <rect x="230" y="292" width="1050" height="18" rx="9"/>
  <rect x="230" y="342" width="1050" height="18" rx="9"/>
</g>

<!-- Engineering progress -->
<g fill="url(#g)">
  <rect x="230" y="142" width="900" height="18" rx="9"/>
  <rect x="230" y="192" width="790" height="18" rx="9"/>
  <rect x="230" y="242" width="680" height="18" rx="9"/>
  <rect x="230" y="292" width="650" height="18" rx="9"/>
  <rect x="230" y="342" width="590" height="18" rx="9"/>
</g>

<!-- ==================== DESIGN ==================== -->

<text
  x="62"
  y="420"
  fill="#FFF"
  font-family="Arial"
  font-size="28"
  font-weight="800"
>
  DESIGN
</text>

<!-- Design labels -->
<g
  font-family="Arial"
  font-size="15"
  fill="#DCD7EA"
>
  <text x="62" y="465">Figma</text>
  <text x="62" y="515">UI / UX</text>
</g>

<!-- Design background bars -->
<g fill="#211B36">
  <rect x="230" y="452" width="440" height="18" rx="9"/>
  <rect x="230" y="502" width="440" height="18" rx="9"/>
</g>

<!-- Design progress -->
<g fill="url(#g)">
  <rect x="230" y="452" width="390" height="18" rx="9"/>
  <rect x="230" y="502" width="365" height="18" rx="9"/>
</g>

<!-- ==================== PRODUCT ==================== -->

<text
  x="760"
  y="420"
  fill="#FFF"
  font-family="Arial"
  font-size="28"
  font-weight="800"
>
  PRODUCT
</text>

<!-- Product labels -->
<g
  font-family="Arial"
  font-size="15"
  fill="#DCD7EA"
>
  <text x="760" y="465">Product Strategy</text>
  <text x="760" y="515">Solution Design</text>
  <text x="760" y="565">User Research</text>
</g>

<!-- Product background bars -->
<g fill="#211B36">
  <rect x="965" y="452" width="315" height="18" rx="9"/>
  <rect x="965" y="502" width="315" height="18" rx="9"/>
  <rect x="965" y="552" width="315" height="18" rx="9"/>
</g>

<!-- Product progress -->
<g fill="url(#g)">
  <rect x="965" y="452" width="255" height="18" rx="9"/>
  <rect x="965" y="502" width="235" height="18" rx="9"/>
  <rect x="965" y="552" width="210" height="18" rx="9"/>
</g>

</svg>
